<svg width="176" height="41" viewBox="0 0 176 41" fill="none" xmlns="http://www.w3.org/2000/svg">
<path d="M19.4931 29.8952H25.7466V32H17.4087V17.2662H11.1552V32H2.8173V14.5529L1.46565 15.9013L0 14.4214L14.2819 0L28.5639 14.4214L27.0982 15.9013L25.7466 14.5529V17.2662H23.6621V12.4481L14.2819 2.95992L4.90178 12.4481V29.8952H9.07074V15.1614H19.4931V29.8952ZM32 19.371V32H29.9155V27.7903H21.5776V19.371H32ZM29.9155 21.4758H23.6621V25.6855H29.9155V21.4758Z" fill="#1E1E1E"/>
<path d="M55.328 14.576C55.328 15.552 55.104 16.448 54.656 17.264C54.208 18.064 53.52 18.712 52.592 19.208C51.664 19.704 50.512 19.952 49.136 19.952H46.592V26H42.488V9.152H49.136C50.48 9.152 51.616 9.384 52.544 9.848C53.472 10.312 54.168 10.952 54.632 11.768C55.096 12.584 55.328 13.52 55.328 14.576ZM48.824 16.688C49.608 16.688 50.192 16.504 50.576 16.136C50.96 15.768 51.152 15.248 51.152 14.576C51.152 13.904 50.96 13.384 50.576 13.016C50.192 12.648 49.608 12.464 48.824 12.464H46.592V16.688H48.824ZM61.5686 14.84C62.0486 14.104 62.6486 13.528 63.3686 13.112C64.0886 12.68 64.8886 12.464 65.7686 12.464V16.808H64.6406C63.6166 16.808 62.8486 17.032 62.3366 17.48C61.8246 17.912 61.5686 18.68 61.5686 19.784V26H57.4646V12.608H61.5686V14.84ZM73.8262 26.192C72.5142 26.192 71.3302 25.912 70.2742 25.352C69.2342 24.792 68.4102 23.992 67.8022 22.952C67.2102 21.912 66.9142 20.696 66.9142 19.304C66.9142 17.928 67.2182 16.72 67.8262 15.68C68.4342 14.624 69.2662 13.816 70.3222 13.256C71.3782 12.696 72.5622 12.416 73.8742 12.416C75.1862 12.416 76.3702 12.696 77.4262 13.256C78.4822 13.816 79.3142 14.624 79.9222 15.68C80.5302 16.72 80.8342 17.928 80.8342 19.304C80.8342 20.68 80.5222 21.896 79.8982 22.952C79.2902 23.992 78.4502 24.792 77.3782 25.352C76.3222 25.912 75.1382 26.192 73.8262 26.192ZM73.8262 22.64C74.6102 22.64 75.2742 22.352 75.8182 21.776C76.3782 21.2 76.6582 20.376 76.6582 19.304C76.6582 18.232 76.3862 17.408 75.8422 16.832C75.3142 16.256 74.6582 15.968 73.8742 15.968C73.0742 15.968 72.4102 16.256 71.8822 16.832C71.3542 17.392 71.0902 18.216 71.0902 19.304C71.0902 20.376 71.3462 21.2 71.8582 21.776C72.3862 22.352 73.0422 22.64 73.8262 22.64ZM87.1154 14.504C87.5154 13.88 88.0674 13.376 88.7714 12.992C89.4754 12.608 90.2994 12.416 91.2434 12.416C92.3474 12.416 93.3474 12.696 94.2434 13.256C95.1394 13.816 95.8434 14.616 96.3554 15.656C96.8834 16.696 97.1474 17.904 97.1474 19.28C97.1474 20.656 96.8834 21.872 96.3554 22.928C95.8434 23.968 95.1394 24.776 94.2434 25.352C93.3474 25.912 92.3474 26.192 91.2434 26.192C90.3154 26.192 89.4914 26 88.7714 25.616C88.0674 25.232 87.5154 24.736 87.1154 24.128V32.384H83.0114V12.608H87.1154V14.504ZM92.9714 19.28C92.9714 18.256 92.6834 17.456 92.1074 16.88C91.5474 16.288 90.8514 15.992 90.0194 15.992C89.2034 15.992 88.5074 16.288 87.9314 16.88C87.3714 17.472 87.0914 18.28 87.0914 19.304C87.0914 20.328 87.3714 21.136 87.9314 21.728C88.5074 22.32 89.2034 22.616 90.0194 22.616C90.8354 22.616 91.5314 22.32 92.1074 21.728C92.6834 21.12 92.9714 20.304 92.9714 19.28ZM109.501 17.36C110.477 17.568 111.261 18.056 111.853 18.824C112.445 19.576 112.741 20.44 112.741 21.416C112.741 22.824 112.245 23.944 111.253 24.776C110.277 25.592 108.909 26 107.149 26H99.3005V9.152H106.885C108.597 9.152 109.933 9.544 110.893 10.328C111.869 11.112 112.357 12.176 112.357 13.52C112.357 14.512 112.093 15.336 111.565 15.992C111.053 16.648 110.365 17.104 109.501 17.36ZM103.405 15.968H106.093C106.765 15.968 107.277 15.824 107.629 15.536C107.997 15.232 108.181 14.792 108.181 14.216C108.181 13.64 107.997 13.2 107.629 12.896C107.277 12.592 106.765 12.44 106.093 12.44H103.405V15.968ZM106.429 22.688C107.117 22.688 107.645 22.536 108.013 22.232C108.397 21.912 108.589 21.456 108.589 20.864C108.589 20.272 108.389 19.808 107.989 19.472C107.605 19.136 107.069 18.968 106.381 18.968H103.405V22.688H106.429ZM121.217 26.192C119.905 26.192 118.721 25.912 117.665 25.352C116.625 24.792 115.801 23.992 115.193 22.952C114.601 21.912 114.305 20.696 114.305 19.304C114.305 17.928 114.609 16.72 115.217 15.68C115.825 14.624 116.657 13.816 117.713 13.256C118.769 12.696 119.953 12.416 121.265 12.416C122.577 12.416 123.761 12.696 124.817 13.256C125.873 13.816 126.705 14.624 127.313 15.68C127.921 16.72 128.225 17.928 128.225 19.304C128.225 20.68 127.913 21.896 127.289 22.952C126.681 23.992 125.841 24.792 124.769 25.352C123.713 25.912 122.529 26.192 121.217 26.192ZM121.217 22.64C122.001 22.64 122.665 22.352 123.209 21.776C123.769 21.2 124.049 20.376 124.049 19.304C124.049 18.232 123.777 17.408 123.233 16.832C122.705 16.256 122.049 15.968 121.265 15.968C120.465 15.968 119.801 16.256 119.273 16.832C118.745 17.392 118.481 18.216 118.481 19.304C118.481 20.376 118.737 21.2 119.249 21.776C119.777 22.352 120.433 22.64 121.217 22.64ZM137.866 22.52V26H135.778C134.29 26 133.13 25.64 132.298 24.92C131.466 24.184 131.05 22.992 131.05 21.344V16.016H129.418V12.608H131.05V9.344H135.154V12.608H137.842V16.016H135.154V21.392C135.154 21.792 135.25 22.08 135.442 22.256C135.634 22.432 135.954 22.52 136.402 22.52H137.866Z" fill="#1E1E1E"/>
</svg>
